<svg width="24" height="25" viewBox="0 0 24 25" fill="none" xmlns="http://www.w3.org/2000/svg">
<path fill-rule="evenodd" clip-rule="evenodd" d="M6.85714 22.5C6.85714 23.8807 8.00855 25 9.4236 25L21.4335 25C22.851 25 24 23.8903 24 22.5C24 21.1193 22.8486 20 21.4335 20L9.4236 20C8.00618 20 6.85714 21.1097 6.85714 22.5ZM0 12.5C0 13.8807 1.15141 15 2.56646 15L14.5764 15C15.9938 15 17.1429 13.8903 17.1429 12.5C17.1429 11.1193 15.9914 10 14.5764 10L2.56646 10C1.14904 10 0 11.1097 0 12.5ZM6.85714 2.5C6.85714 3.88071 8.00855 5 9.4236 5L21.4335 5C22.851 5 24 3.89034 24 2.5C24 1.11929 22.8486 1.90735e-06 21.4335 1.90735e-06L9.4236 1.90735e-06C8.00618 1.90735e-06 6.85714 1.10966 6.85714 2.5Z" fill="black" style="mix-blend-mode:hue"/>
</svg>
